# 60 mm long 6-sided target: 5 mm ends, 8 mm centre circumradius.
v -30 5 0
v -30 2.5 4.330127
v -30 -2.5 4.330127
v -30 -5 0
v -30 -2.5 -4.330127
v -30 2.5 -4.330127
v 0 8 0
v 0 4 6.928203
v 0 -4 6.928203
v 0 -8 0
v 0 -4 -6.928203
v 0 4 -6.928203
v 30 5 0
v 30 2.5 4.330127
v 30 -2.5 4.330127
v 30 -5 0
v 30 -2.5 -4.330127
v 30 2.5 -4.330127
f 1 2 3
f 1 3 4
f 1 4 5
f 1 5 6
f 13 15 14
f 13 16 15
f 13 17 16
f 13 18 17
f 1 7 8
f 1 8 2
f 2 8 9
f 2 9 3
f 3 9 10
f 3 10 4
f 4 10 11
f 4 11 5
f 5 11 12
f 5 12 6
f 6 12 7
f 6 7 1
f 7 13 14
f 7 14 8
f 8 14 15
f 8 15 9
f 9 15 16
f 9 16 10
f 10 16 17
f 10 17 11
f 11 17 18
f 11 18 12
f 12 18 13
f 12 13 7
